<?xml version="1.0" encoding="UTF-8" standalone="no"?>
<svg
   xmlns:dc="http://purl.org/dc/elements/1.1/"
   xmlns:cc="http://creativecommons.org/ns#"
   xmlns:rdf="http://www.w3.org/1999/02/22-rdf-syntax-ns#"
   xmlns:svg="http://www.w3.org/2000/svg"
   xmlns="http://www.w3.org/2000/svg"
   xmlns:xlink="http://www.w3.org/1999/xlink"
   viewBox="0 0 1869.351 300"
   height="300"
   width="1869.351"
   xml:space="preserve"
   id="svg2"
   version="1.1"><metadata
     id="metadata8"><rdf:RDF><cc:Work
         rdf:about=""><dc:format>image/svg+xml</dc:format><dc:type
           rdf:resource="http://purl.org/dc/dcmitype/StillImage" /><dc:title></dc:title></cc:Work></rdf:RDF></metadata><defs
     id="defs6"><clipPath
       id="clipPath58"
       clipPathUnits="userSpaceOnUse"><path
         id="path56"
         d="M 100.587,57.638 H 239.571 V 80.315 H 100.587 Z" /></clipPath><clipPath
       clipPathUnits="userSpaceOnUse"
       id="clipPath"><use
         id="use"
         transform="matrix(1.000000,0.000000,0.000000,1.000000,-235.977700,-69.639600)"
         xlink:href="#path56" /></clipPath><clipPath
       clipPathUnits="userSpaceOnUse"
       id="clipPatho"><use
         id="useD"
         transform="matrix(1.000000,0.000000,0.000000,1.000000,0.000000,0.000000)"
         xlink:href="#path56" /></clipPath><clipPath
       clipPathUnits="userSpaceOnUse"
       id="clipPathg"><use
         id="use5"
         transform="matrix(1.000000,0.000000,0.000000,1.000000,-212.697900,-71.665600)"
         xlink:href="#path56" /></clipPath><clipPath
       clipPathUnits="userSpaceOnUse"
       id="clipPathh"><use
         id="useq"
         transform="matrix(1.000000,0.000000,0.000000,1.000000,-196.046000,-74.222800)"
         xlink:href="#path56" /></clipPath><clipPath
       clipPathUnits="userSpaceOnUse"
       id="clipPathe"><use
         id="useU"
         transform="matrix(1.000000,0.000000,0.000000,1.000000,-180.927300,-71.722500)"
         xlink:href="#path56" /></clipPath><clipPath
       clipPathUnits="userSpaceOnUse"
       id="clipPathm"><use
         id="usew"
         transform="matrix(1.000000,0.000000,0.000000,1.000000,-162.647100,-79.685700)"
         xlink:href="#path56" /></clipPath><clipPath
       clipPathUnits="userSpaceOnUse"
       id="clipPathO"><use
         id="useA"
         transform="matrix(1.000000,0.000000,0.000000,1.000000,-116.401700,-79.639400)"
         xlink:href="#path56" /></clipPath><clipPath
       clipPathUnits="userSpaceOnUse"
       id="clipPath6"><use
         id="useO"
         transform="matrix(1.000000,0.000000,0.000000,1.000000,-150.456000,-66.972000)"
         xlink:href="#path56" /></clipPath><clipPath
       clipPathUnits="userSpaceOnUse"
       id="clipPath2"><use
         id="usewi"
         transform="matrix(1.000000,0.000000,0.000000,1.000000,-125.723000,-79.614900)"
         xlink:href="#path56" /></clipPath><clipPath
       clipPathUnits="userSpaceOnUse"
       id="clipPathQ"><use
         id="useN"
         transform="matrix(1.000000,0.000000,0.000000,1.000000,-150.184500,-66.976200)"
         xlink:href="#path56" /></clipPath></defs><g
     transform="matrix(1.3333333,0,0,-1.3333333,0,299.99997)"
     id="g10"><path
       d="M 0,0 C 0.506,1.18 0.818,2.847 0.818,3.693 0.82,6.349 -0.263,8.776 -2,10.515 c -1.735,1.739 -4.156,2.824 -6.803,2.824 -2.646,0 -5.066,-1.085 -6.798,-2.824 -1.738,-1.739 -2.819,-4.166 -2.819,-6.822 0,-2.653 1.085,-5.079 2.819,-6.818 4.07,-4.081 7.441,-1.405 7.441,-4.955 v -1.258 h 5.393 v 1.723 c 0,5.87 -4.712,6.617 -6.087,6.948 -0.809,0.195 -4.181,0.851 -4.181,4.36 0,1.16 0.472,2.225 1.242,3.003 0.772,0.773 1.816,1.243 2.99,1.243 1.177,0 2.217,-0.47 2.993,-1.243 C -5.039,5.918 -4.587,4.874 -4.568,3.693 -4.539,1.893 -5.985,0.347 -6.563,0 Z"
       style="fill:#e3231a;fill-opacity:1;fill-rule:nonzero;stroke:none"
       id="path62"
       transform="matrix(10.087608,0,0,9.921948,500.32016,92.653107)"
       clip-path="url(#clipPathQ)" /><path
       d="m 0,0 v -5.243 h -9.314 v -1.597 -3.713 -5.325 h 5.298 v 5.325 H 0 v -5.325 h 5.299 v 5.325 5.31 V 0 Z"
       style="fill:#4e4e53;fill-opacity:1;fill-rule:nonzero;stroke:none"
       id="path66"
       transform="matrix(10.087608,0,0,9.921948,253.56214,218.05363)"
       clip-path="url(#clipPath2)" /><path
       d="m 0,0 c 0.512,1.18 0.827,2.849 0.827,3.693 0.003,2.656 -1.094,5.081 -2.857,6.819 -1.76,1.741 -4.216,2.826 -6.903,2.825 -2.683,10e-4 -5.139,-1.084 -6.897,-2.825 -1.763,-1.738 -2.861,-4.163 -2.861,-6.819 0,-2.652 1.101,-5.08 2.861,-6.818 4.13,-4.078 7.551,-1.404 7.551,-4.951 v -1.258 h 5.471 v 1.722 c 0,5.867 -4.781,6.614 -6.175,6.946 -0.823,0.196 -4.244,0.85 -4.244,4.359 0,1.158 0.48,2.225 1.26,3.004 0.786,0.772 1.843,1.241 3.034,1.242 1.195,-0.001 2.253,-0.47 3.038,-1.242 0.782,-0.779 1.24,-1.823 1.26,-3.004 C -4.607,1.893 -6.073,0.349 -6.66,0 Z"
       style="fill:#e41d11;fill-opacity:1;fill-rule:nonzero;stroke:none"
       id="path70"
       transform="matrix(10.087608,0,0,9.921948,503.05895,92.611435)"
       clip-path="url(#clipPath6)" /><path
       d="m 0,0 h -15.815 v -5.3 h 5.263 v -10.603 h 5.289 V -5.3 H 0 Z"
       style="fill:#4e4e53;fill-opacity:1;fill-rule:nonzero;stroke:none"
       id="path74"
       transform="matrix(10.087608,0,0,9.921948,159.53252,218.29671)"
       clip-path="url(#clipPathO)" /><path
       d="M 0,0 V -7.66 L -5.633,0 h -4.914 v -15.987 h 4.697 v 8.311 l 6.177,-8.311 H 4.906 V 0 Z"
       style="fill:#4e4e53;fill-opacity:1;fill-rule:nonzero;stroke:none"
       id="path78"
       transform="matrix(10.087608,0,0,9.921948,626.03799,218.7561)"
       clip-path="url(#clipPathm)" /><path
       d="m 0,0 v -0.045 c 0,-2.299 -1.688,-4.033 -3.927,-4.033 -2.215,0 -3.95,1.791 -3.95,4.078 v 0.044 c 0,2.3 1.679,4.034 3.904,4.034 C -1.745,4.078 0,2.287 0,0 m -3.927,8.285 c -4.934,0 -8.798,-3.639 -8.798,-8.285 v -0.045 c 0,-4.62 3.844,-8.24 8.752,-8.24 4.934,0 8.799,3.639 8.799,8.285 v 0.044 c 0,4.621 -3.845,8.241 -8.753,8.241"
       style="fill:#4e4e53;fill-opacity:1;fill-rule:nonzero;stroke:none"
       id="path82"
       transform="matrix(10.087608,0,0,9.921948,810.44148,139.74565)"
       clip-path="url(#clipPathe)" /><path
       d="m 0,0 v -0.045 c 0,-1.077 -0.819,-1.721 -2.191,-1.721 h -2.732 v 3.487 h 2.709 C -1.387,1.721 0,1.497 0,0 m 4.679,-0.108 v 0.044 C 4.679,1.509 4.195,2.778 3.243,3.708 2.104,4.872 0.344,5.463 -1.989,5.463 H -9.58 v -16.049 h 4.657 v 4.771 h 2.043 l 2.087,-4.771 h 5.372 l -2.876,5.733 c 2.003,0.904 2.976,2.457 2.976,4.745"
       style="fill:#4e4e53;fill-opacity:1;fill-rule:nonzero;stroke:none"
       id="path86"
       transform="matrix(10.087608,0,0,9.921948,962.953,164.55349)"
       clip-path="url(#clipPathh)" /><path
       d="m 0,0 v -0.045 c 0,-2.409 -1.637,-3.846 -4.379,-3.846 h -1.706 v 7.737 h 1.706 C -1.678,3.846 0,2.372 0,0 m -4.449,8.02 h -6.479 V -8.065 h 6.385 c 5.684,0 9.504,3.25 9.504,8.087 v 0.045 c 0,4.831 -3.694,7.953 -9.41,7.953"
       style="fill:#4e4e53;fill-opacity:1;fill-rule:nonzero;stroke:none"
       id="path90"
       transform="matrix(10.087608,0,0,9.921948,1130.9308,139.18109)"
       clip-path="url(#clipPathg)" /><path
       d="m 218.265,63.664 h 4.879 v 16.022 h -4.879 z"
       style="fill:#4e4e53;fill-opacity:1;fill-rule:nonzero;stroke:none"
       id="path92"
       transform="matrix(10.087608,0,0,9.921948,-1014.6822,-571.88124)"
       clip-path="url(#clipPatho)" /><path
       d="m 0,0 -0.086,-0.103 c -0.94,-1.116 -1.899,-1.858 -3.522,-1.858 -2.14,0 -3.694,1.706 -3.694,4.056 V 2.14 c 0,2.287 1.588,4.012 3.694,4.012 1.342,0 2.392,-0.552 3.406,-1.79 L -0.113,4.253 3.474,6.966 3.388,7.083 c -1.659,2.249 -3.933,3.342 -6.95,3.342 -4.923,0 -8.635,-3.581 -8.635,-8.33 V 2.05 c 0,-4.723 3.634,-8.284 8.451,-8.284 3.159,0 5.395,1.114 7.248,3.611 l 0.091,0.122 z"
       style="fill:#4e4e53;fill-opacity:1;fill-rule:nonzero;stroke:none"
       id="path96"
       transform="matrix(10.087608,0,0,9.921948,1365.7683,119.07922)"
       clip-path="url(#clipPath)" /></g></svg>